<?xml version="1.0" encoding="UTF-8" standalone="no"?>
<!DOCTYPE svg PUBLIC "-//W3C//DTD SVG 1.1//EN" "http://www.w3.org/Graphics/SVG/1.1/DTD/svg11.dtd">
<svg version="1.1" xmlns="http://www.w3.org/2000/svg" xmlns:xlink="http://www.w3.org/1999/xlink" preserveAspectRatio="xMidYMid meet" viewBox="0 0 640 640" width="640" height="640"><defs><path d="M611.46 180.73C622.51 180.73 631.46 171.78 631.46 160.73C631.46 155.73 631.46 115.73 631.46 110.73C631.46 99.68 622.51 90.73 611.46 90.73C559.46 90.73 143.46 90.73 91.46 90.73C80.41 90.73 71.46 99.68 71.46 110.73C71.46 115.73 71.46 155.73 71.46 160.73C71.46 171.78 80.41 180.73 91.46 180.73C195.46 180.73 559.46 180.73 611.46 180.73ZM611.46 380.73C622.51 380.73 631.46 371.78 631.46 360.73C631.46 355.73 631.46 315.73 631.46 310.73C631.46 299.68 622.51 290.73 611.46 290.73C559.46 290.73 143.46 290.73 91.46 290.73C80.41 290.73 71.46 299.68 71.46 310.73C71.46 315.73 71.46 355.73 71.46 360.73C71.46 371.78 80.41 380.73 91.46 380.73C195.46 380.73 559.46 380.73 611.46 380.73ZM611.46 580.73C622.51 580.73 631.46 571.78 631.46 560.73C631.46 555.73 631.46 515.73 631.46 510.73C631.46 499.68 622.51 490.73 611.46 490.73C559.46 490.73 143.46 490.73 91.46 490.73C80.41 490.73 71.46 499.68 71.46 510.73C71.46 515.73 71.46 555.73 71.46 560.73C71.46 571.78 80.41 580.73 91.46 580.73C195.46 580.73 559.46 580.73 611.46 580.73Z" id="b9Zet8MbS"></path></defs><g><g><g><use xlink:href="#b9Zet8MbS" opacity="1" fill="#26acc8" fill-opacity="1"></use><g><use xlink:href="#b9Zet8MbS" opacity="1" fill-opacity="0" stroke="#000000" stroke-width="1" stroke-opacity="0"></use></g></g></g></g></svg>